<svg width="70" height="43" viewBox="0 0 70 43" fill="none" xmlns="http://www.w3.org/2000/svg">
<path d="M47.5453 0H38.15C37.275 0 36.4328 0.328125 35.7875 0.91875L25.0359 10.7625C25.025 10.7734 25.0141 10.7953 25.0031 10.8062C23.1875 12.5125 23.2203 15.2359 24.7734 16.9312C26.1625 18.4516 29.0828 18.8562 30.9094 17.2266C30.9203 17.2156 30.9422 17.2156 30.9531 17.2047L39.6922 9.19844C40.4031 8.55313 41.5187 8.59688 42.1641 9.30781C42.8203 10.0188 42.7656 11.1234 42.0547 11.7797L39.2 14.3937L55.125 27.3219C55.4422 27.5844 55.7266 27.8687 55.9891 28.1641V7L50.0172 1.02813C49.3719 0.371875 48.475 0 47.5453 0ZM59.5 7.02187V31.5109C59.5 33.4469 61.0641 35.0109 63 35.0109H70V7.02187H59.5ZM64.75 31.5109C63.7875 31.5109 63 30.7234 63 29.7609C63 28.7984 63.7875 28.0109 64.75 28.0109C65.7125 28.0109 66.5 28.7984 66.5 29.7609C66.5 30.7234 65.7125 31.5109 64.75 31.5109ZM0 35H7C8.93594 35 10.5 33.4359 10.5 31.5V7.02187H0V35ZM5.25 28.0109C6.2125 28.0109 7 28.7984 7 29.7609C7 30.7234 6.2125 31.5109 5.25 31.5109C4.2875 31.5109 3.5 30.7234 3.5 29.7609C3.5 28.7875 4.2875 28.0109 5.25 28.0109ZM52.9266 30.0453L36.5969 16.7891L33.3156 19.7969C30.0672 22.7609 25.0906 22.4766 22.1922 19.3156C19.25 16.1 19.4797 11.1234 22.6734 8.19219L31.6203 0H22.4547C21.525 0 20.6391 0.371875 19.9828 1.02813L14 7V31.4891H16.0016L25.9 40.4469C28.8969 42.8859 33.3047 42.4266 35.7437 39.4297L35.7656 39.4078L37.7234 41.1031C39.4625 42.525 42.0328 42.2516 43.4438 40.5125L46.8781 36.2906L47.4688 36.7719C48.9672 37.9859 51.1766 37.7672 52.3906 36.2578L53.4297 34.9781C54.6547 33.4687 54.425 31.2703 52.9266 30.0453Z" fill="#FFCB2A"/>
</svg>
