<svg width="296" height="127" viewBox="0 0 296 127" fill="none" xmlns="http://www.w3.org/2000/svg">
<path d="M122.856 3.89941H131.909C137.432 3.89941 140.193 6.57275 140.193 11.9194V17.6323C140.193 21.5728 138.208 24.1143 134.238 25.2568C133.286 25.5352 131.902 25.6743 130.085 25.6743H129.075V42H122.856V3.89941ZM129.075 9.30469V20.2251H130.503C131.367 20.2251 131.96 20.1738 132.283 20.0713C133.411 19.6758 133.975 18.8628 133.975 17.6323V11.9194C133.975 10.1763 133.074 9.30469 131.272 9.30469H129.075ZM161.803 34.6831C161.803 40.0151 158.822 42.6885 152.861 42.7031C146.913 42.7031 143.94 40.0298 143.94 34.6831V11.3701C143.94 6.03809 146.913 3.37207 152.861 3.37207C158.822 3.37207 161.803 6.03809 161.803 11.3701V34.6831ZM155.585 11.3701C155.585 9.65625 154.684 8.79932 152.883 8.79932H152.839C151.051 8.79932 150.158 9.65625 150.158 11.3701V34.6831C150.158 36.397 151.059 37.2539 152.861 37.2539C154.677 37.2539 155.585 36.397 155.585 34.6831V11.3701ZM190.291 33.2549L194.686 3.89941H200.97L198.949 17.4126L194.576 42H186.051L182.821 22.3345L179.613 42H171.087L166.693 17.3687L164.671 3.89941H170.933L175.328 33.2549L179.723 3.89941H185.897L190.291 33.2549ZM204.255 3.89941H220.383V9.30469H210.474V20.2251H218.999V25.6743H210.474V36.5728H220.383V42H204.255V3.89941ZM224.548 3.89941H233.6C239.123 3.89941 241.884 6.57275 241.884 11.9194V17.6323C241.884 20.9868 240.251 23.1987 236.984 24.2681L243.971 42H237.16L231.557 25.2349L230.766 25.3447V42H224.548V3.89941ZM230.766 9.30469V20.2251H232.194C233.058 20.2251 233.652 20.1738 233.974 20.0713C235.102 19.6758 235.666 18.8628 235.666 17.6323V11.9194C235.666 10.1763 234.765 9.30469 232.963 9.30469H230.766ZM140.281 76.6831C140.281 82.0151 137.3 84.6885 131.338 84.7031C125.391 84.7031 122.417 82.0298 122.417 76.6831V53.3701C122.417 48.0381 125.391 45.3721 131.338 45.3721C137.3 45.3721 140.281 48.0381 140.281 53.3701V58.4897H134.062V53.3701C134.062 51.6562 133.162 50.7993 131.36 50.7993H131.316C129.529 50.7993 128.635 51.6562 128.635 53.3701V76.6831C128.635 78.397 129.536 79.2539 131.338 79.2539C133.154 79.2539 134.062 78.397 134.062 76.6831V71.5635H140.281V76.6831ZM145.016 45.8994H151.235V84H145.016V45.8994ZM156.629 45.8994H165.682C171.204 45.8994 173.966 48.5728 173.966 53.9194V59.6323C173.966 62.9868 172.332 65.1987 169.066 66.2681L176.053 84H169.242L163.639 67.2349L162.848 67.3447V84H156.629V45.8994ZM162.848 51.3047V62.2251H164.276C165.14 62.2251 165.733 62.1738 166.056 62.0713C167.183 61.6758 167.747 60.8628 167.747 59.6323V53.9194C167.747 52.1763 166.847 51.3047 165.045 51.3047H162.848ZM196.016 76.6831C196.016 82.0151 193.035 84.6885 187.073 84.7031C181.126 84.7031 178.152 82.0298 178.152 76.6831V53.3701C178.152 48.0381 181.126 45.3721 187.073 45.3721C193.035 45.3721 196.016 48.0381 196.016 53.3701V58.4897H189.797V53.3701C189.797 51.6562 188.897 50.7993 187.095 50.7993H187.051C185.264 50.7993 184.37 51.6562 184.37 53.3701V76.6831C184.37 78.397 185.271 79.2539 187.073 79.2539C188.889 79.2539 189.797 78.397 189.797 76.6831V71.5635H196.016V76.6831ZM218.285 76.6831C218.285 82.0151 215.304 84.6885 209.343 84.7031C203.395 84.7031 200.422 82.0298 200.422 76.6831V45.9653H206.64V76.6831C206.64 78.397 207.541 79.2539 209.343 79.2539C211.159 79.2539 212.067 78.397 212.067 76.6831V45.9653H218.285V76.6831ZM223.46 45.8994H229.679V84H223.46V45.8994ZM251.179 45.8994V51.3047H245.357V84H239.138V51.3047H233.316V45.8994H251.179ZM122.856 87.8994H132.437C137.959 87.8994 140.72 90.5728 140.72 95.9194V101.632C140.72 104.137 139.585 105.91 137.314 106.95C139.585 107.99 140.72 109.755 140.72 112.245V118.002C140.72 123.319 137.827 125.985 132.041 126H122.856V87.8994ZM129.075 93.3047V104.225H131.03C131.895 104.225 132.488 104.174 132.81 104.071C133.938 103.676 134.502 102.863 134.502 101.632V95.9194C134.502 94.1763 133.601 93.3047 131.799 93.3047H129.075ZM129.075 109.674V120.573H131.799C133.601 120.573 134.502 119.716 134.502 118.002V112.245C134.502 111.029 133.938 110.231 132.81 109.85C132.488 109.733 131.895 109.674 131.03 109.674H129.075ZM145.346 87.8994H154.399C159.921 87.8994 162.682 90.5728 162.682 95.9194V101.632C162.682 104.987 161.049 107.199 157.782 108.268L164.77 126H157.958L152.355 109.235L151.564 109.345V126H145.346V87.8994ZM151.564 93.3047V104.225H152.992C153.857 104.225 154.45 104.174 154.772 104.071C155.9 103.676 156.464 102.863 156.464 101.632V95.9194C156.464 94.1763 155.563 93.3047 153.761 93.3047H151.564ZM166.649 87.8994H182.777V93.3047H172.867V104.225H181.392V109.674H172.867V120.573H182.777V126H166.649V87.8994ZM204.277 112.487L206.299 126H200.015L198.806 117.914H192.456L191.226 126H184.963L186.985 112.531L191.379 87.8994H199.905L204.277 112.487ZM197.993 112.487L195.62 96.6226L193.247 112.487H197.993ZM220.878 106.95L229.096 126H222.438L215.825 109.059V126H209.606V87.8994H215.825V104.84L222.438 87.8994H229.096L220.878 106.95ZM232.403 87.8994H248.531V93.3047H238.622V104.225H247.147V109.674H238.622V120.573H248.531V126H232.403V87.8994ZM252.696 87.8994H261.748C267.271 87.8994 270.032 90.5728 270.032 95.9194V101.632C270.032 104.987 268.399 107.199 265.132 108.268L272.119 126H265.308L259.705 109.235L258.914 109.345V126H252.696V87.8994ZM258.914 93.3047V104.225H260.342C261.206 104.225 261.8 104.174 262.122 104.071C263.25 103.676 263.814 102.863 263.814 101.632V95.9194C263.814 94.1763 262.913 93.3047 261.111 93.3047H258.914ZM274.746 95.3701C274.746 90.0381 277.719 87.3721 283.666 87.3721C289.628 87.3721 292.609 90.0381 292.609 95.3701V100.49H286.391V95.3701C286.391 93.6562 285.49 92.7993 283.688 92.7993H283.644C281.857 92.7993 280.964 93.6562 280.964 95.3701V98.8198C280.964 100.519 282.905 102.599 286.787 105.06C290.668 107.506 292.609 110.443 292.609 113.871V118.683C292.609 124.03 289.636 126.703 283.688 126.703C277.726 126.688 274.746 124.015 274.746 118.683V113.563H280.964V118.683C280.964 120.397 281.872 121.254 283.688 121.254C285.49 121.254 286.391 120.397 286.391 118.683V114.333C286.391 112.487 284.45 110.333 280.568 107.873C276.686 105.426 274.746 102.453 274.746 98.9517V95.3701Z" fill="white"/>
<rect x="74.9264" y="55.8179" width="26.1623" height="6.48537" rx="1" transform="rotate(-45 74.9264 55.8179)" fill="#8D8686"/>
<rect x="62" y="26" width="16" height="74" fill="#C0C1C6"/>
<rect x="62" y="26" width="4" height="74" fill="#A3A4A9"/>
<rect x="2" y="2" width="60" height="121" rx="1" fill="#747F83"/>
<rect x="2" y="2" width="5" height="121" rx="1" fill="#667276"/>
<path d="M2.5 93V2.5H61.5V39.5" stroke="black" stroke-width="3.5" stroke-linecap="round" stroke-linejoin="round"/>
<path d="M2.5 100.5V123.5H61.5V47.5" stroke="black" stroke-width="3.5" stroke-linecap="round" stroke-linejoin="round"/>
<path d="M61.5 26.5H77.5V82.5" stroke="black" stroke-width="3" stroke-linecap="round" stroke-linejoin="round"/>
<path d="M77.5 89.5V100.5H61.5" stroke="black" stroke-width="3" stroke-linecap="round" stroke-linejoin="round"/>
<circle cx="101" cy="35" r="9" fill="#FF4755"/>
<circle cx="101" cy="35" r="9" stroke="black" stroke-width="3"/>
<line x1="92" y1="38.1213" x2="78.1213" y2="52" stroke="black" stroke-width="3" stroke-linecap="round"/>
<line x1="96" y1="44.1213" x2="78.1213" y2="62" stroke="black" stroke-width="3" stroke-linecap="round"/>
<path d="M93.5 35.0001C93.5 27.5 101 27.5001 101 27.5001C101 27.5001 96 30.5001 96 35.0001C96 39.5001 101 42.5001 101 42.5001C101 42.5001 93.5 42.5001 93.5 35.0001Z" fill="#F22B36"/>
<path d="M19.2678 77.5H43.7322C46.0574 77.5 47.4987 74.9692 46.3124 72.9694L34.0802 52.3494C32.918 50.3902 30.0821 50.3902 28.9199 52.3494L16.6877 72.9694C15.5013 74.9692 16.9426 77.5 19.2678 77.5Z" fill="#FFCB2A" stroke="black" stroke-width="2"/>
<path d="M32 59L28.8618 65.2764C28.6956 65.6088 28.9373 66 29.309 66H33.5657C33.9651 66 34.2033 66.4451 33.9818 66.7774L30.5 72" stroke="black" stroke-width="2" stroke-linecap="round"/>
</svg>
