<svg width="70" height="47" viewBox="0 0 70 47" fill="none" xmlns="http://www.w3.org/2000/svg">
<path d="M67.0833 0H10.6944C9.08359 0 7.77778 1.30582 7.77778 2.91667V3.88889H2.91667C1.30582 3.88889 0 5.1947 0 6.80555V39.8611C0 43.6197 3.04694 46.6667 6.80556 46.6667H64.1667C67.3884 46.6667 70 44.055 70 40.8333V2.91667C70 1.30582 68.6942 0 67.0833 0ZM6.80556 40.8333C6.54771 40.8333 6.30042 40.7309 6.11809 40.5486C5.93576 40.3662 5.83333 40.119 5.83333 39.8611V9.72222H7.77778V39.8611C7.77778 40.119 7.67535 40.3662 7.49302 40.5486C7.31069 40.7309 7.06341 40.8333 6.80556 40.8333ZM35.4861 38.8889H17.0139C16.2085 38.8889 15.5556 38.2359 15.5556 37.4306V36.4583C15.5556 35.653 16.2085 35 17.0139 35H35.4861C36.2915 35 36.9444 35.653 36.9444 36.4583V37.4306C36.9444 38.2359 36.2915 38.8889 35.4861 38.8889ZM60.7639 38.8889H42.2917C41.4863 38.8889 40.8333 38.2359 40.8333 37.4306V36.4583C40.8333 35.653 41.4863 35 42.2917 35H60.7639C61.5693 35 62.2222 35.653 62.2222 36.4583V37.4306C62.2222 38.2359 61.5693 38.8889 60.7639 38.8889ZM35.4861 27.2222H17.0139C16.2085 27.2222 15.5556 26.5693 15.5556 25.7639V24.7917C15.5556 23.9863 16.2085 23.3333 17.0139 23.3333H35.4861C36.2915 23.3333 36.9444 23.9863 36.9444 24.7917V25.7639C36.9444 26.5693 36.2915 27.2222 35.4861 27.2222ZM60.7639 27.2222H42.2917C41.4863 27.2222 40.8333 26.5693 40.8333 25.7639V24.7917C40.8333 23.9863 41.4863 23.3333 42.2917 23.3333H60.7639C61.5693 23.3333 62.2222 23.9863 62.2222 24.7917V25.7639C62.2222 26.5693 61.5693 27.2222 60.7639 27.2222ZM60.7639 15.5556H17.0139C16.2085 15.5556 15.5556 14.9026 15.5556 14.0972V9.23611C15.5556 8.43075 16.2085 7.77778 17.0139 7.77778H60.7639C61.5693 7.77778 62.2222 8.43075 62.2222 9.23611V14.0972C62.2222 14.9026 61.5693 15.5556 60.7639 15.5556Z" fill="#FFCB2A"/>
</svg>
