<svg width="40" height="40" viewBox="0 0 40 40" fill="none" xmlns="http://www.w3.org/2000/svg">
<path d="M38.4266 29.3273V34.822C38.4286 35.3321 38.3241 35.837 38.1198 36.3044C37.9154 36.7717 37.6157 37.1913 37.2398 37.5361C36.864 37.881 36.4202 38.1435 35.937 38.3069C35.4538 38.4703 34.9418 38.531 34.4337 38.4851C28.7977 37.8727 23.3838 35.9468 18.6272 32.8622C14.2018 30.0501 10.4499 26.2982 7.6378 21.8728C4.5424 17.0946 2.61607 11.6544 2.01487 5.99301C1.9691 5.48652 2.02929 4.97605 2.19161 4.49409C2.35394 4.01214 2.61484 3.56927 2.9577 3.19367C3.30056 2.81807 3.71787 2.51798 4.18307 2.3125C4.64826 2.10702 5.15114 2.00066 5.6597 2.00018H11.1544C12.0433 1.99143 12.905 2.30619 13.579 2.8858C14.253 3.46541 14.6932 4.27032 14.8176 5.15048C15.0495 6.90892 15.4796 8.63547 16.0997 10.2972C16.3461 10.9528 16.3994 11.6652 16.2534 12.3502C16.1073 13.0351 15.7679 13.6638 15.2755 14.1618L12.9494 16.4879C15.5567 21.0734 19.3534 24.87 23.9388 27.4774L26.2649 25.1513C26.7629 24.6588 27.3916 24.3195 28.0766 24.1734C28.7615 24.0273 29.474 24.0806 30.1295 24.3271C31.7913 24.9471 33.5178 25.3772 35.2763 25.6092C36.166 25.7347 36.9785 26.1828 37.5594 26.8684C38.1402 27.5539 38.4488 28.429 38.4266 29.3273Z" stroke="black" stroke-width="3" stroke-linecap="round" stroke-linejoin="round"/>
</svg>
