<svg width="70" height="49" viewBox="0 0 70 49" fill="none" xmlns="http://www.w3.org/2000/svg">
<path d="M10.5 21C14.3609 21 17.5 17.8609 17.5 14C17.5 10.1391 14.3609 7 10.5 7C6.63906 7 3.5 10.1391 3.5 14C3.5 17.8609 6.63906 21 10.5 21ZM59.5 21C63.3609 21 66.5 17.8609 66.5 14C66.5 10.1391 63.3609 7 59.5 7C55.6391 7 52.5 10.1391 52.5 14C52.5 17.8609 55.6391 21 59.5 21ZM63 24.5H56C54.075 24.5 52.3359 25.2766 51.0672 26.5344C55.475 28.9516 58.6031 33.3156 59.2812 38.5H66.5C68.4359 38.5 70 36.9359 70 35V31.5C70 27.6391 66.8609 24.5 63 24.5ZM35 24.5C41.7703 24.5 47.25 19.0203 47.25 12.25C47.25 5.47969 41.7703 0 35 0C28.2297 0 22.75 5.47969 22.75 12.25C22.75 19.0203 28.2297 24.5 35 24.5ZM43.4 28H42.4922C40.2172 29.0938 37.6906 29.75 35 29.75C32.3094 29.75 29.7938 29.0938 27.5078 28H26.6C19.6437 28 14 33.6438 14 40.6V43.75C14 46.6484 16.3516 49 19.25 49H50.75C53.6484 49 56 46.6484 56 43.75V40.6C56 33.6438 50.3562 28 43.4 28ZM18.9328 26.5344C17.6641 25.2766 15.925 24.5 14 24.5H7C3.13906 24.5 0 27.6391 0 31.5V35C0 36.9359 1.56406 38.5 3.5 38.5H10.7078C11.3969 33.3156 14.525 28.9516 18.9328 26.5344Z" fill="#FFCB2A"/>
</svg>
